<?plantuml 1.2026.2?><svg xmlns="http://www.w3.org/2000/svg" xmlns:xlink="http://www.w3.org/1999/xlink" contentStyleType="text/css" data-diagram-type="DESCRIPTION" height="693px" preserveAspectRatio="none" style="width:417px;height:693px;background:#FFFFFF;" version="1.1" viewBox="0 0 417 693" width="417px" zoomAndPan="magnify"><defs/><g><!--cluster Casos_de_Uso--><g class="cluster" data-qualified-name="Casos_de_Uso" data-source-line="7" id="ent0004"><rect fill="none" height="680" rx="2.5" ry="2.5" style="stroke:#181818;stroke-width:1;" width="262" x="149" y="7"/><text fill="#000000" font-family="sans-serif" font-size="14" font-weight="bold" lengthAdjust="spacing" textLength="108.8418" x="225.5791" y="21.9951">Casos_de_Uso</text></g><!--entity UC1--><g class="entity" data-qualified-name="Casos_de_Uso.UC1" data-source-line="9" id="ent0005"><ellipse cx="279.8711" cy="415.7742" fill="#F1F1F1" rx="64.3711" ry="15.2742" style="stroke:#181818;stroke-width:0.5;"/><text fill="#000000" font-family="sans-serif" font-size="14" lengthAdjust="spacing" textLength="91.793" x="233.9746" y="420.4227">Iniciar sesi&#243;n</text></g><!--entity UC2--><g class="entity" data-qualified-name="Casos_de_Uso.UC2" data-source-line="10" id="ent0006"><ellipse cx="279.7743" cy="349.0549" fill="#F1F1F1" rx="70.7743" ry="16.5549" style="stroke:#181818;stroke-width:0.5;"/><text fill="#000000" font-family="sans-serif" font-size="14" lengthAdjust="spacing" textLength="108.3223" x="225.6132" y="353.7033">Gestionar perfil</text></g><!--entity UC3--><g class="entity" data-qualified-name="Casos_de_Uso.UC3" data-source-line="11" id="ent0007"><ellipse cx="279.9324" cy="653.7865" fill="#F1F1F1" rx="71.9324" ry="16.7865" style="stroke:#181818;stroke-width:0.5;"/><text fill="#000000" font-family="sans-serif" font-size="14" lengthAdjust="spacing" textLength="111.207" x="224.3289" y="658.4349">Visualizar obras</text></g><!--entity UC4--><g class="entity" data-qualified-name="Casos_de_Uso.UC4" data-source-line="14" id="ent0008"><ellipse cx="279.7787" cy="490.8557" fill="#F1F1F1" rx="107.2787" ry="23.8557" style="stroke:#181818;stroke-width:0.5;"/><text fill="#000000" font-family="sans-serif" font-size="14" lengthAdjust="spacing" textLength="191.9805" x="183.7885" y="495.5042">Gestionar tareas asignadas</text></g><!--entity UC5--><g class="entity" data-qualified-name="Casos_de_Uso.UC5" data-source-line="15" id="ent0009"><ellipse cx="279.7516" cy="575.8503" fill="#F1F1F1" rx="114.7516" ry="25.3503" style="stroke:#181818;stroke-width:0.5;"/><text fill="#000000" font-family="sans-serif" font-size="14" lengthAdjust="spacing" textLength="208.1201" x="175.6915" y="580.4988">Reportar consumo materiales</text></g><!--entity UC6--><g class="entity" data-qualified-name="Casos_de_Uso.UC6" data-source-line="18" id="ent0010"><ellipse cx="280.0262" cy="133.8052" fill="#F1F1F1" rx="72.0262" ry="16.8052" style="stroke:#181818;stroke-width:0.5;"/><text fill="#000000" font-family="sans-serif" font-size="14" lengthAdjust="spacing" textLength="111.4395" x="224.3065" y="138.4537">Gestionar obras</text></g><!--entity UC7--><g class="entity" data-qualified-name="Casos_de_Uso.UC7" data-source-line="19" id="ent0011"><ellipse cx="279.8679" cy="205.9736" fill="#F1F1F1" rx="85.3679" ry="19.4736" style="stroke:#181818;stroke-width:0.5;"/><text fill="#000000" font-family="sans-serif" font-size="14" lengthAdjust="spacing" textLength="143.1719" x="208.282" y="210.622">Gestionar inventario</text></g><!--entity UC8--><g class="entity" data-qualified-name="Casos_de_Uso.UC8" data-source-line="20" id="ent0012"><ellipse cx="279.8423" cy="278.9685" fill="#F1F1F1" rx="80.3423" ry="18.4685" style="stroke:#181818;stroke-width:0.5;"/><text fill="#000000" font-family="sans-serif" font-size="14" lengthAdjust="spacing" textLength="131.4824" x="214.1011" y="283.6169">Gestionar usuarios</text></g><!--entity UC9--><g class="entity" data-qualified-name="Casos_de_Uso.UC9" data-source-line="21" id="ent0013"><ellipse cx="279.7887" cy="61.7577" fill="#F1F1F1" rx="86.7887" ry="19.7577" style="stroke:#181818;stroke-width:0.5;"/><text fill="#000000" font-family="sans-serif" font-size="14" lengthAdjust="spacing" textLength="146.4326" x="206.5724" y="66.4062">Visualizar dashboard</text></g><!--entity Admin--><g class="entity" data-qualified-name="Admin" data-source-line="4" id="ent0002"><ellipse cx="55.54" cy="213.5" fill="#F1F1F1" rx="8" ry="8" style="stroke:#181818;stroke-width:0.5;"/><path d="M55.54,221.5 L55.54,248.5 M42.54,229.5 L68.54,229.5 M55.54,248.5 L42.54,263.5 M55.54,248.5 L68.54,263.5" fill="none" style="stroke:#181818;stroke-width:0.5;"/><text fill="#000000" font-family="sans-serif" font-size="14" lengthAdjust="spacing" textLength="99.0801" x="6" y="277.9951">Administrador</text></g><!--entity Emp--><g class="entity" data-qualified-name="Emp" data-source-line="5" id="ent0003"><ellipse cx="55.4521" cy="461.5" fill="#F1F1F1" rx="8" ry="8" style="stroke:#181818;stroke-width:0.5;"/><path d="M55.4521,469.5 L55.4521,496.5 M42.4521,477.5 L68.4521,477.5 M55.4521,496.5 L42.4521,511.5 M55.4521,496.5 L68.4521,511.5" fill="none" style="stroke:#181818;stroke-width:0.5;"/><text fill="#000000" font-family="sans-serif" font-size="14" lengthAdjust="spacing" textLength="69.9043" x="20.5" y="525.9951">Empleado</text></g><!--link Emp to UC1--><g class="link" data-entity-1="ent0003" data-entity-2="ent0005" data-link-type="dependency" data-source-line="25" id="lnk14"><path d="M90.67,471.81 C105.75,463.92 123.91,455.2 141,449 C169.14,438.79 195.7779,432.0723 222.1779,426.5323" fill="none" id="Emp-to-UC1" style="stroke:#181818;stroke-width:1;"/><polygon fill="#181818" points="228.05,425.3,218.4203,423.2336,223.1566,426.3269,220.0634,431.0631,228.05,425.3" style="stroke:#181818;stroke-width:1;"/></g><!--link Emp to UC2--><g class="link" data-entity-1="ent0003" data-entity-2="ent0006" data-link-type="dependency" data-source-line="26" id="lnk15"><path d="M77.37,452.86 C92.16,429.32 114.12,400.39 141,383 C162.96,368.79 184.5014,361.6709 209.1114,356.8609" fill="none" id="Emp-to-UC2" style="stroke:#181818;stroke-width:1;"/><polygon fill="#181818" points="215,355.71,205.3998,353.5107,210.0928,356.6691,206.9344,361.3621,215,355.71" style="stroke:#181818;stroke-width:1;"/></g><!--link Emp to UC3--><g class="link" data-entity-1="ent0003" data-entity-2="ent0007" data-link-type="dependency" data-source-line="27" id="lnk16"><path d="M72.34,529.11 C86.28,558.01 109.31,596.48 141,619 C162.05,633.96 183.0282,641.355 207.4482,646.275" fill="none" id="Emp-to-UC3" style="stroke:#181818;stroke-width:1;"/><polygon fill="#181818" points="213.33,647.46,205.2973,641.7612,208.4285,646.4725,203.7173,649.6037,213.33,647.46" style="stroke:#181818;stroke-width:1;"/></g><!--link Emp to UC4--><g class="link" data-entity-1="ent0003" data-entity-2="ent0008" data-link-type="dependency" data-source-line="28" id="lnk17"><path d="M90.78,491 C112.84,491 136.83,491 166.38,491" fill="none" id="Emp-to-UC4" style="stroke:#181818;stroke-width:1;"/><polygon fill="#181818" points="172.38,491,163.38,487,167.38,491,163.38,495,172.38,491" style="stroke:#181818;stroke-width:1;"/></g><!--link Emp to UC5--><g class="link" data-entity-1="ent0003" data-entity-2="ent0009" data-link-type="dependency" data-source-line="29" id="lnk18"><path d="M90.53,508.89 C105.75,516.53 124.04,525.22 141,532 C162.83,540.73 181.4055,547.1527 203.4455,554.0727" fill="none" id="Emp-to-UC5" style="stroke:#181818;stroke-width:1;"/><polygon fill="#181818" points="209.17,555.87,201.7815,549.3577,204.3996,554.3722,199.3851,556.9903,209.17,555.87" style="stroke:#181818;stroke-width:1;"/></g><!--link Admin to UC1--><g class="link" data-entity-1="ent0002" data-entity-2="ent0005" data-link-type="dependency" data-source-line="32" id="lnk19"><path d="M69.89,281.25 C83.06,313.25 106.28,357.62 141,383 C163.07,399.14 186.0319,406.4917 211.6619,410.7717" fill="none" id="Admin-to-UC1" style="stroke:#181818;stroke-width:1;"/><polygon fill="#181818" points="217.58,411.76,209.3618,406.3322,212.6483,410.9364,208.0441,414.223,217.58,411.76" style="stroke:#181818;stroke-width:1;"/></g><!--link Admin to UC2--><g class="link" data-entity-1="ent0002" data-entity-2="ent0006" data-link-type="dependency" data-source-line="33" id="lnk20"><path d="M93.7,281.21 C107.54,293.56 124.02,306.3 141,315 C165.04,327.32 187.892,334.1262 212.892,339.2462" fill="none" id="Admin-to-UC2" style="stroke:#181818;stroke-width:1;"/><polygon fill="#181818" points="218.77,340.45,210.7555,334.7256,213.8717,339.4468,209.1505,342.5629,218.77,340.45" style="stroke:#181818;stroke-width:1;"/></g><!--link Admin to UC6--><g class="link" data-entity-1="ent0002" data-entity-2="ent0010" data-link-type="dependency" data-source-line="34" id="lnk21"><path d="M92.33,204.93 C106.4,191.88 123.39,178.25 141,169 C164.85,156.47 187.5407,149.5054 212.4707,144.2154" fill="none" id="Admin-to-UC6" style="stroke:#181818;stroke-width:1;"/><polygon fill="#181818" points="218.34,142.97,208.7057,140.9253,213.4489,144.0079,210.3663,148.751,218.34,142.97" style="stroke:#181818;stroke-width:1;"/></g><!--link Admin to UC7--><g class="link" data-entity-1="ent0002" data-entity-2="ent0011" data-link-type="dependency" data-source-line="35" id="lnk22"><path d="M105.05,234.93 C135.87,229.8 170.3011,224.0733 204.3711,218.4133" fill="none" id="Admin-to-UC7" style="stroke:#181818;stroke-width:1;"/><polygon fill="#181818" points="210.29,217.43,200.7562,214.959,205.3576,218.2494,202.0672,222.8509,210.29,217.43" style="stroke:#181818;stroke-width:1;"/></g><!--link Admin to UC8--><g class="link" data-entity-1="ent0002" data-entity-2="ent0012" data-link-type="dependency" data-source-line="36" id="lnk23"><path d="M105.05,250.86 C136.89,256.01 172.9772,261.8407 207.7372,267.4707" fill="none" id="Admin-to-UC8" style="stroke:#181818;stroke-width:1;"/><polygon fill="#181818" points="213.66,268.43,205.4153,263.0425,208.7243,267.6306,204.1362,270.9396,213.66,268.43" style="stroke:#181818;stroke-width:1;"/></g><!--link Admin to UC9--><g class="link" data-entity-1="ent0002" data-entity-2="ent0013" data-link-type="dependency" data-source-line="37" id="lnk24"><path d="M69.4,204.88 C82.43,172.06 105.72,125.88 141,99 C158.86,85.4 175.5123,78.2579 197.1123,72.8079" fill="none" id="Admin-to-UC9" style="stroke:#181818;stroke-width:1;"/><polygon fill="#181818" points="202.93,71.34,193.2249,69.6634,198.0819,72.5632,195.1821,77.4203,202.93,71.34" style="stroke:#181818;stroke-width:1;"/></g><?plantuml-src TP7FJiCm3CRlUGfhbvrsOFztGK8JGbo7ndNo6g-pbYPLd281ugbu15wChBHR2kNcp_xr-npNq250SE0vFmRGx2aBxAoI4ziIFHPGOdR2d9x2go4uZz7cXfJ2B3WFWpjTi6K97hNp0q21kjEExulIK1pLaoYKkbZ06iN9JjDkAmxU5S3mfmMPAofB4ZkLK8P2C7Yqd35w41B--hIrtNPzao8F9EVL8rIIFx1fc77AFBDKQFWjGcxlKHfc4faaNnEqU_S71FGKFqJXtAA-s4nJUaEbyn6Chx5I5GuA3EGP3RNux4zgvvZzqUdQytw4xGlPcCokuHRzN1Ll4Q7MRVdFeUBxZdk7NZVSIdqeDOGD6SoY4SdrMB60qUYs_ZFNUfpKawIU9lNibsNt4hMwEATgt57pZbfqrBAZLjy0?></g></svg>